<svg width="20" height="20" viewBox="0 0 20 20" fill="none" xmlns="http://www.w3.org/2000/svg">
<path opacity="0.4" d="M7.33337 3.33301H6.00004C2.66671 3.33301 1.33337 4.66634 1.33337 7.99967V11.9997C1.33337 15.333 2.66671 16.6663 6.00004 16.6663H10C13.3334 16.6663 14.6667 15.333 14.6667 11.9997V10.6663" stroke="#292D32" stroke-opacity="0.7" stroke-width="1.5" stroke-linecap="round" stroke-linejoin="round"/>
<path d="M10.6934 4.0135L5.44004 9.26684C5.24004 9.46684 5.04004 9.86017 5.00004 10.1468L4.71337 12.1535C4.60671 12.8802 5.12004 13.3868 5.84671 13.2868L7.85337 13.0002C8.13337 12.9602 8.52671 12.7602 8.73338 12.5602L13.9867 7.30684C14.8934 6.40017 15.32 5.34684 13.9867 4.0135C12.6534 2.68017 11.6 3.10684 10.6934 4.0135Z" stroke="#292D32" stroke-opacity="0.7" stroke-width="1.5" stroke-miterlimit="10" stroke-linecap="round" stroke-linejoin="round"/>
<path opacity="0.4" d="M9.93994 4.7666C10.3866 6.35993 11.6333 7.6066 13.2333 8.05993" stroke="#292D32" stroke-opacity="0.7" stroke-width="1.5" stroke-miterlimit="10" stroke-linecap="round" stroke-linejoin="round"/>
</svg>
