<svg width="16" height="16" viewBox="0 0 16 16" fill="none" xmlns="http://www.w3.org/2000/svg">
<path opacity="0.4" d="M9.54667 12.7132C9.54667 13.1198 9.27998 13.6532 8.93998 13.8598L8 14.4665C7.12667 15.0065 5.91333 14.3998 5.91333 13.3198V9.75317C5.91333 9.27984 5.64667 8.67318 5.37333 8.33984L2.81331 5.6465C2.47331 5.3065 2.20667 4.70651 2.20667 4.29985V2.75317C2.20667 1.94651 2.81334 1.33984 3.55334 1.33984H12.4467C13.1867 1.33984 13.7933 1.9465 13.7933 2.6865V4.1665C13.7933 4.7065 13.4533 5.37984 13.12 5.71318" stroke="#292D32" stroke-opacity="0.7" stroke-width="1.5" stroke-miterlimit="10" stroke-linecap="round" stroke-linejoin="round"/>
<path d="M10.7134 11.0137C11.8916 11.0137 12.8467 10.0586 12.8467 8.88041C12.8467 7.7022 11.8916 6.74707 10.7134 6.74707C9.53515 6.74707 8.58002 7.7022 8.58002 8.88041C8.58002 10.0586 9.53515 11.0137 10.7134 11.0137Z" stroke="#292D32" stroke-opacity="0.7" stroke-width="1.5" stroke-linecap="round" stroke-linejoin="round"/>
<path d="M13.2467 11.4137L12.58 10.7471" stroke="#292D32" stroke-opacity="0.7" stroke-width="1.5" stroke-linecap="round" stroke-linejoin="round"/>
</svg>
