<svg width="16" height="17" viewBox="0 0 16 17" fill="none" xmlns="http://www.w3.org/2000/svg">
<path d="M2.19526 2.69526C2.07024 2.82029 2 2.98986 2 3.16667V4.89067C2.00004 5.06746 2.0703 5.237 2.19533 5.362L6.47133 9.638C6.59637 9.763 6.66663 9.93254 6.66667 10.1093V14.5L9.33333 11.8333V10.1093C9.33337 9.93254 9.40363 9.763 9.52867 9.638L13.8047 5.362C13.9297 5.237 14 5.06746 14 4.89067V3.16667C14 2.98986 13.9298 2.82029 13.8047 2.69526C13.6797 2.57024 13.5101 2.5 13.3333 2.5H2.66667C2.48986 2.5 2.32029 2.57024 2.19526 2.69526Z" stroke="#37352F" stroke-opacity="0.5" stroke-linecap="round" stroke-linejoin="round"/>
</svg>
