<?xml version="1.0" standalone="no"?>
<!DOCTYPE svg PUBLIC "-//W3C//DTD SVG 20010904//EN"
 "http://www.w3.org/TR/2001/REC-SVG-20010904/DTD/svg10.dtd">
<svg version="1.0" xmlns="http://www.w3.org/2000/svg"
 width="512.000000pt" height="512.000000pt" viewBox="0 0 512.000000 512.000000"
 preserveAspectRatio="xMidYMid meet">

<g transform="translate(0.000000,512.000000) scale(0.100000,-0.100000)"
fill="#000000" stroke="none">
<path d="M3285 4704 c-195 -43 -362 -133 -500 -269 -128 -125 -198 -234 -255
-395 l-26 -75 -1170 -5 c-1123 -5 -1171 -6 -1199 -24 -82 -51 -123 -115 -132
-202 -10 -99 52 -204 147 -248 45 -21 52 -21 1201 -24 l1156 -2 23 -68 c51
-151 141 -292 258 -404 91 -87 163 -136 277 -189 147 -69 215 -83 415 -83 153
-1 186 2 260 22 292 80 533 282 660 555 21 45 43 101 49 124 l11 41 233 4
c256 4 281 9 345 71 56 53 76 102 76 182 0 99 -36 163 -129 221 -26 17 -57 20
-274 24 l-245 5 -36 95 c-44 116 -75 175 -140 261 -131 175 -314 300 -535 365
-76 22 -114 27 -245 30 -115 3 -173 0 -225 -12z m336 -500 c90 -27 150 -63
220 -133 103 -103 149 -212 149 -356 0 -191 -101 -361 -267 -448 -90 -47 -159
-61 -274 -55 -102 5 -166 26 -248 82 -213 143 -283 425 -164 661 14 27 52 77
84 111 100 103 215 153 360 153 51 1 107 -5 140 -15z"/>
<path d="M1462 2419 c-142 -24 -326 -106 -448 -200 -154 -119 -289 -314 -340
-493 l-18 -64 -231 -4 c-254 -4 -279 -9 -343 -71 -56 -53 -76 -102 -76 -182 0
-99 36 -163 129 -221 26 -17 57 -20 277 -24 l249 -5 23 -65 c131 -372 475
-638 864 -668 302 -24 567 70 784 276 114 109 202 245 254 392 l23 65 1173 5
c1127 5 1175 6 1203 24 49 30 85 68 108 111 30 56 30 164 0 220 -27 52 -77 99
-128 122 -38 17 -108 18 -1197 21 -1089 2 -1158 4 -1158 20 -1 34 -68 194
-116 274 -57 95 -199 245 -289 305 -121 81 -242 130 -388 158 -86 16 -268 18
-355 4z m303 -504 c87 -23 152 -62 226 -135 103 -101 149 -211 149 -354 0 -89
-15 -158 -50 -226 -86 -172 -257 -280 -443 -281 -98 0 -163 13 -232 47 -262
132 -361 436 -228 699 34 65 130 165 195 200 117 64 258 82 383 50z"/>
</g>
</svg>
