<svg width="17" height="17" viewBox="0 0 17 17" fill="none" xmlns="http://www.w3.org/2000/svg">
<path d="M15.1668 7.49967V10.833C15.1668 13.1663 13.8335 14.1663 11.8335 14.1663H5.16683C3.16683 14.1663 1.8335 13.1663 1.8335 10.833V6.16634C1.8335 3.83301 3.16683 2.83301 5.16683 2.83301H9.8335" stroke="#454B51" stroke-width="1.5" stroke-miterlimit="10" stroke-linecap="round" stroke-linejoin="round"/>
<path opacity="0.4" d="M5.1665 6.5L7.25317 8.16667C7.93984 8.71333 9.06651 8.71333 9.75317 8.16667L10.5398 7.54" stroke="#454B51" stroke-width="1.5" stroke-miterlimit="10" stroke-linecap="round" stroke-linejoin="round"/>
<path opacity="0.4" d="M13.5002 5.83333C14.4206 5.83333 15.1668 5.08714 15.1668 4.16667C15.1668 3.24619 14.4206 2.5 13.5002 2.5C12.5797 2.5 11.8335 3.24619 11.8335 4.16667C11.8335 5.08714 12.5797 5.83333 13.5002 5.83333Z" stroke="#454B51" stroke-width="1.5" stroke-miterlimit="10" stroke-linecap="round" stroke-linejoin="round"/>
</svg>
