<svg width="20" height="20" viewBox="0 0 20 20" fill="none" xmlns="http://www.w3.org/2000/svg">
<g clip-path="url(#clip0_153_1211)">
<path d="M18.3333 10.0003C18.3333 5.40033 14.6 1.66699 10 1.66699C5.40001 1.66699 1.66667 5.40033 1.66667 10.0003C1.66667 14.6003 5.40001 18.3337 10 18.3337" stroke="#292D32" stroke-opacity="0.7" stroke-width="1.5" stroke-linecap="round" stroke-linejoin="round"/>
<g opacity="0.4">
<path d="M6.66635 2.5H7.49968C5.87468 7.36667 5.87468 12.6333 7.49968 17.5H6.66635" stroke="#292D32" stroke-opacity="0.7" stroke-width="1.5" stroke-linecap="round" stroke-linejoin="round"/>
<path d="M12.5 2.5C13.3083 4.93333 13.7167 7.46667 13.7167 10" stroke="#292D32" stroke-opacity="0.7" stroke-width="1.5" stroke-linecap="round" stroke-linejoin="round"/>
<path d="M2.5 13.3333V12.5C4.93333 13.3083 7.46667 13.7167 10 13.7167" stroke="#292D32" stroke-opacity="0.7" stroke-width="1.5" stroke-linecap="round" stroke-linejoin="round"/>
<path d="M2.5 7.5C7.36667 5.875 12.6333 5.875 17.5 7.5" stroke="#292D32" stroke-opacity="0.7" stroke-width="1.5" stroke-linecap="round" stroke-linejoin="round"/>
</g>
<path d="M16.0084 13.1162L13.0584 16.0662C12.9417 16.1829 12.8334 16.3995 12.8084 16.5579L12.65 17.6828C12.5917 18.0912 12.875 18.3745 13.2834 18.3162L14.4084 18.1579C14.5667 18.1329 14.7917 18.0245 14.9 17.9079L17.85 14.9579C18.3584 14.4495 18.6 13.8579 17.85 13.1079C17.1084 12.3662 16.5167 12.6079 16.0084 13.1162Z" stroke="#292D32" stroke-opacity="0.7" stroke-width="1.5" stroke-miterlimit="10" stroke-linecap="round" stroke-linejoin="round"/>
<path d="M15.5835 13.542C15.8335 14.442 16.5335 15.142 17.4335 15.392" stroke="#292D32" stroke-opacity="0.7" stroke-width="1.5" stroke-miterlimit="10" stroke-linecap="round" stroke-linejoin="round"/>
</g>
<defs>
<clipPath id="clip0_153_1211">
<rect width="20" height="20" fill="white"/>
</clipPath>
</defs>
</svg>
