<?xml version="1.0" encoding="UTF-8"?>
<svg version="1.1" xmlns="http://www.w3.org/2000/svg" width="1024" height="162">
<path d="M0 0 C3.00102539 0.00314827 6.00104935 -0.02036026 9.00195312 -0.0456543 C32.34566309 -0.1221019 57.46369062 1.88466538 78.77539062 12.19067383 C79.4114624 12.49384521 80.04753418 12.7970166 80.70288086 13.109375 C85.43597768 15.58321882 89.07605581 18.74789228 91.90039062 23.31567383 C92.69495063 26.39058722 92.66414647 29.30185359 92.58154297 32.46386719 C92.58241913 33.35246429 92.58329529 34.2410614 92.584198 35.15658569 C92.58004045 38.07381196 92.53347648 40.98869649 92.48632812 43.90551758 C92.47512944 45.93574264 92.46659243 47.96598397 92.46060181 49.99623108 C92.43775656 55.32477034 92.37886998 60.65231923 92.31237793 65.98046875 C92.25086273 71.42344772 92.22356705 76.86658763 92.19335938 82.30981445 C92.12912294 92.97886799 92.02679527 103.64718837 91.90039062 114.31567383 C81.94721102 114.362031 71.99405713 114.39756026 62.04079151 114.41929817 C57.41900123 114.4297317 52.79728486 114.44388309 48.17553711 114.46655273 C43.71461448 114.4882964 39.25376291 114.5002457 34.79279137 114.50542831 C33.09155852 114.50912133 31.39032953 114.51633285 29.68912697 114.52713394 C27.30479172 114.54166912 24.92074944 114.54365093 22.53637695 114.54272461 C21.83434647 114.54991516 21.13231598 114.55710571 20.40901184 114.56451416 C15.28912506 114.54301593 11.73383783 113.73667597 7.67773438 110.59301758 C5.43571178 107.72027214 5.06253797 105.45538039 4.46289062 101.87817383 C3.3201904 96.33856188 2.52620671 93.58759252 -2.09960938 90.31567383 C-6.38041362 87.82889958 -10.24578431 87.71761324 -15.09960938 88.31567383 C-17.97107931 89.6856454 -17.97107931 89.6856454 -20.09960938 91.31567383 C-20.75960937 91.31567383 -21.41960937 91.31567383 -22.09960938 91.31567383 C-26.5686763 99.29615048 -26.43275512 107.18374212 -26.51367188 116.12426758 C-26.53240763 117.45948959 -26.5519828 118.79470006 -26.57235718 120.12989807 C-26.62343056 123.62321126 -26.66318785 127.11656274 -26.70050049 130.61004639 C-26.74069676 134.18324052 -26.79171736 137.75627884 -26.84179688 141.3293457 C-26.93826194 148.32467422 -27.02275969 155.32010305 -27.09960938 162.31567383 C-44.05898348 162.36243127 -61.01833742 162.39768101 -77.97776127 162.41929817 C-85.85262776 162.42960297 -93.72745416 162.44364805 -101.60229492 162.46655273 C-108.46742115 162.48651102 -115.33251834 162.49939606 -122.19767278 162.50385082 C-125.83142947 162.50645407 -129.46510307 162.51255621 -133.09883308 162.52713394 C-137.15910627 162.54329017 -141.21923577 162.54365195 -145.27954102 162.54272461 C-147.07921074 162.55351044 -147.07921074 162.55351044 -148.91523743 162.56451416 C-162.41456739 162.53113448 -162.41456739 162.53113448 -166.84179688 158.87817383 C-170.81904134 153.39231939 -171.26084818 150.13703002 -171.30493164 143.4597168 C-171.31483124 142.54258911 -171.32473083 141.62546143 -171.33493042 140.68054199 C-171.36659653 137.63967498 -171.39132304 134.59879232 -171.41601562 131.55786133 C-171.43658074 129.45321235 -171.45757709 127.34856754 -171.47898865 125.243927 C-171.53425503 119.69715752 -171.58364415 114.15035048 -171.63183594 108.60351562 C-171.68201766 102.94633633 -171.73772108 97.28921176 -171.79296875 91.63208008 C-171.90060616 80.52665804 -172.00203871 69.42118855 -172.09960938 58.31567383 C-175.74995164 56.49050269 -180.10320053 56.9039827 -184.13085938 56.69458008 C-187.09960938 56.31567383 -187.09960938 56.31567383 -189.09960938 54.31567383 C-189.24478681 51.40631803 -189.28591733 48.59572783 -189.22460938 45.69067383 C-189.21558594 44.88887695 -189.2065625 44.08708008 -189.19726562 43.26098633 C-189.1736716 41.2790886 -189.13780002 39.29734402 -189.09960938 37.31567383 C-185.81055929 35.35702602 -183.32510371 35.05884478 -179.52148438 35.05004883 C-178.44253906 35.0474707 -177.36359375 35.04489258 -176.25195312 35.04223633 C-174.56779297 35.05383789 -174.56779297 35.05383789 -172.84960938 35.06567383 C-171.74230469 35.05793945 -170.635 35.05020508 -169.49414062 35.04223633 C-154.56405264 35.07774189 -154.56405264 35.07774189 -149.90820312 39.30566406 C-147.37628183 43.51949473 -147.59466029 46.9493721 -147.70898438 51.77270508 C-147.71464417 52.67566818 -147.72030396 53.57863129 -147.72613525 54.50895691 C-147.74846043 57.38257686 -147.79864919 60.2549331 -147.84960938 63.12817383 C-147.86967939 65.08062973 -147.88792928 67.03310525 -147.90429688 68.9855957 C-147.94831255 73.7627726 -148.01731312 78.53900923 -148.09960938 83.31567383 C-146.11960938 83.31567383 -144.13960937 83.31567383 -142.09960938 83.31567383 C-142.12055664 82.09984619 -142.14150391 80.88401855 -142.16308594 79.63134766 C-142.23559254 75.1120994 -142.28144793 70.59290236 -142.31933594 66.07324219 C-142.33942711 64.11872709 -142.36670527 62.16427193 -142.40136719 60.20996094 C-142.44999539 57.39739175 -142.47260298 54.58561856 -142.49023438 51.77270508 C-142.51087952 50.90168655 -142.53152466 50.03066803 -142.55279541 49.133255 C-142.55429578 45.05873863 -142.43097839 42.86716527 -140.29101562 39.30566406 C-134.28174803 33.84871886 -124.94678499 35.01260857 -117.34960938 35.06567383 C-116.22683594 35.05793945 -115.1040625 35.05020508 -113.94726562 35.04223633 C-112.86832031 35.04481445 -111.789375 35.04739258 -110.67773438 35.05004883 C-109.2144873 35.05343262 -109.2144873 35.05343262 -107.72167969 35.05688477 C-105.00800088 35.32471526 -103.37861067 35.8417898 -101.09960938 37.31567383 C-99.62266869 40.26955519 -99.8903014 42.96729265 -99.84960938 46.25317383 C-99.82382813 47.49969727 -99.79804687 48.7462207 -99.77148438 50.03051758 C-100.09960938 53.31567383 -100.09960938 53.31567383 -101.16992188 55.21801758 C-104.12447318 56.89864292 -106.85716524 56.8092951 -110.22460938 56.94067383 C-114.48152252 56.73282675 -114.48152252 56.73282675 -118.09960938 58.31567383 C-118.21429183 60.08850175 -118.25924568 61.86588547 -118.27661133 63.64233398 C-118.28944656 64.78086823 -118.3022818 65.91940247 -118.31550598 67.09243774 C-118.32289291 68.33399628 -118.33027985 69.57555481 -118.33789062 70.85473633 C-118.34999825 72.75876724 -118.34999825 72.75876724 -118.36235046 74.70126343 C-118.3762153 77.39650135 -118.38722341 80.09161598 -118.39477539 82.78686523 C-118.40579888 86.22679945 -118.44014189 89.6660794 -118.47994709 93.10578346 C-118.51251843 96.39703591 -118.51690304 99.68834728 -118.52539062 102.97973633 C-118.55165276 104.82385605 -118.55165276 104.82385605 -118.57844543 106.70523071 C-118.56136416 113.46312363 -118.22640357 117.85842014 -114.09960938 123.31567383 C-110.67818934 126.06801617 -106.44330638 125.6829331 -102.22460938 125.69067383 C-101.18240234 125.72741211 -101.18240234 125.72741211 -100.11914062 125.76489258 C-94.95206955 125.79408507 -92.01504501 124.64671609 -88.09960938 121.31567383 C-85.30693116 117.46310721 -85.82204741 112.97091921 -85.84423828 108.41967773 C-85.84061783 107.52164932 -85.83699738 106.62362091 -85.83326721 105.69837952 C-85.8263781 103.74990479 -85.82386687 101.80141079 -85.82521439 99.85292435 C-85.82617959 96.76756999 -85.81323791 93.68256404 -85.79623413 90.59725952 C-85.74995989 81.8256907 -85.72535506 73.05415737 -85.71875 64.2824707 C-85.71373419 58.91552148 -85.68948046 53.54893589 -85.65342331 48.18210983 C-85.64362692 46.13843342 -85.64129248 44.09470696 -85.646595 42.05101395 C-85.65366874 39.19043391 -85.63637676 36.33093672 -85.61376953 33.47045898 C-85.62602821 32.20781471 -85.62602821 32.20781471 -85.63853455 30.91966248 C-85.56352891 25.57802069 -84.60161921 22.58052922 -81.09960938 18.31567383 C-72.17348982 9.93288329 -58.33570192 6.57283493 -46.66210938 4.06567383 C-45.96102051 3.91469238 -45.25993164 3.76371094 -44.53759766 3.6081543 C-29.74291101 0.67435437 -15.04667514 -0.03282646 0 0 Z M-22.09960938 60.31567383 C-22.79112262 64.61842292 -22.61518343 66.52512695 -20.22460938 70.19067383 C-17.51228547 72.90299773 -16.63719784 73.25481476 -12.78710938 73.69067383 C-9.02099655 73.60341628 -9.02099655 73.60341628 -6.16210938 71.31567383 C-3.86913541 67.98043897 -3.33787203 66.21560328 -3.62304688 62.25317383 C-4.49684096 58.70069951 -6.11578108 57.30489269 -9.09960938 55.31567383 C-14.93265603 53.88093251 -18.65435672 55.25545899 -22.09960938 60.31567383 Z " fill="#0C80D6" transform="translate(189.099609375,-0.315673828125)"/>
<path d="M0 0 C11.22 0 22.44 0 34 0 C37.375 7.875 37.375 7.875 38.3478241 11.60020447 C38.57071609 12.44282837 38.79360809 13.28545227 39.02325439 14.15361023 C39.25558777 15.05416641 39.48792114 15.9547226 39.72729492 16.88256836 C40.10834129 18.33250687 40.10834129 18.33250687 40.49708557 19.81173706 C41.33004252 22.98644627 42.15529737 26.16310289 42.98046875 29.33984375 C43.55863238 31.54956792 44.13727803 33.75916602 44.71638489 35.96864319 C46.23527232 41.76894306 47.74762372 47.57092758 49.25860596 53.37329102 C50.80321462 59.30002518 52.35401848 65.2251375 53.90429688 71.15039062 C56.94225266 82.76535092 59.97330384 94.38210093 63 106 C64.69189937 102.71765497 65.83806925 99.52880791 66.8984375 95.984375 C67.28977943 94.68733256 67.68113788 93.39029511 68.07250977 92.09326172 C68.28303986 91.39070251 68.49356995 90.68814331 68.71047974 89.96429443 C69.89657603 86.01202005 71.09903823 82.06472729 72.30078125 78.1171875 C72.71102791 76.76906479 72.71102791 76.76906479 73.12956238 75.39370728 C76.88306991 63.0778931 80.68617396 50.77738166 84.50931549 38.4830246 C85.65214102 34.80787231 86.79270663 31.13205547 87.92767334 27.45446777 C89.01269882 23.93899903 90.10373917 20.42545352 91.1993351 16.91326523 C91.60828097 15.59870705 92.01507573 14.2834776 92.41963768 12.96756363 C92.97778668 11.15349255 93.54446199 9.34205135 94.11157227 7.53076172 C94.58808983 5.99486893 94.58808983 5.99486893 95.07423401 4.427948 C96 2 96 2 98 0 C100.98095703 -0.22705078 100.98095703 -0.22705078 104.7578125 -0.1953125 C105.75238968 -0.19106766 105.75238968 -0.19106766 106.76705933 -0.18673706 C108.88655583 -0.17553435 111.00563104 -0.15043051 113.125 -0.125 C114.56119182 -0.11497028 115.99739025 -0.10584441 117.43359375 -0.09765625 C120.95586628 -0.075595 124.47789203 -0.04106494 128 0 C131.55972229 7.52388918 134.13702597 15.22620994 136.6328125 23.15625 C137.0735752 24.54419105 137.51473649 25.93200558 137.95626831 27.31970215 C138.88223193 30.23362163 139.80477819 33.14859215 140.72460938 36.06445312 C141.86912694 39.69235787 143.01977355 43.3182763 144.1728096 46.94348145 C150.62717903 67.24214702 156.87309684 87.60023448 163 108 C163.17602249 107.29368942 163.35204498 106.58737885 163.53340149 105.85966492 C178.50540106 45.79179486 178.50540106 45.79179486 184.73397827 21.32754517 C185.20248056 19.4861948 185.66978888 17.64454022 186.13589478 15.80258179 C186.77330096 13.28545047 187.41518248 10.76950821 188.05859375 8.25390625 C188.24326202 7.52162811 188.4279303 6.78934998 188.61819458 6.03488159 C189.88531576 1.11468424 189.88531576 1.11468424 191 0 C193.44830426 -0.08843793 195.86820599 -0.11528752 198.31640625 -0.09765625 C199.04746078 -0.0962413 199.77851532 -0.09482635 200.53172302 -0.09336853 C202.87535632 -0.08775408 205.21889539 -0.07519922 207.5625 -0.0625 C209.14778508 -0.05748686 210.73307166 -0.05292363 212.31835938 -0.04882812 C216.2122761 -0.03777997 220.10612205 -0.02050572 224 0 C225.37323678 4.54911827 224.47231574 8.09158888 223.19604492 12.52246094 C222.99067297 13.26857761 222.78530102 14.01469429 222.57370567 14.78342056 C221.886401 17.27010362 221.18343931 19.75207926 220.48046875 22.234375 C219.9886819 24.00184413 219.49789438 25.76959158 219.00804138 27.53759766 C217.68751454 32.2932811 216.35359839 37.04511247 215.01703644 41.79631042 C213.63518447 46.71660271 212.2650142 51.64014362 210.89404297 56.56347656 C209.22679932 62.54780873 207.55821529 68.53175508 205.8838501 74.51409912 C202.59766594 86.25590726 199.33631791 98.00406969 196.11245918 109.76314545 C195.47486045 112.08846907 194.83645424 114.41356935 194.19773865 116.73858643 C193.99350186 117.48207714 193.78926508 118.22556786 193.5788393 118.99158859 C193.17662906 120.45572473 192.77441196 121.91985898 192.37218761 123.38399124 C191.40449118 126.90756049 190.43836066 130.43154513 189.47543335 133.9564209 C188.41927612 137.82156311 187.35454698 141.68429374 186.2890625 145.546875 C185.98181747 146.67706055 185.67457245 147.80724609 185.35801697 148.97167969 C185.07438797 149.99519531 184.79075897 151.01871094 184.49853516 152.07324219 C184.25559723 152.95888855 184.0126593 153.84453491 183.76235962 154.75701904 C183 157 183 157 181 160 C178.34051548 160.32920571 175.91822187 160.4680305 173.25390625 160.46875 C172.48698959 160.47636353 171.72007294 160.48397705 170.92991638 160.49182129 C169.30674498 160.5026337 167.68350393 160.50547074 166.06030273 160.50097656 C163.57482916 160.50000482 161.09244868 160.54159282 158.60742188 160.5859375 C157.03125645 160.59114489 155.45508027 160.59383269 153.87890625 160.59375 C153.13508194 160.61014526 152.39125763 160.62654053 151.62489319 160.64343262 C149.52172852 160.61523438 149.52172852 160.61523438 146 160 C143.2591477 156.33774904 142.01322143 152.39123113 140.67504883 148.05200195 C140.46312897 147.37127121 140.25120911 146.69054047 140.03286743 145.98918152 C139.33463116 143.74077507 138.64581345 141.4896001 137.95703125 139.23828125 C137.46538956 137.64843876 136.97316564 136.05877621 136.48039246 134.46928406 C135.18053072 130.27084435 133.88863737 126.06999362 132.59838867 121.86859131 C131.31451667 117.69281656 130.02316042 113.51935941 128.73242188 109.34570312 C126.03781434 100.62776561 123.35332105 91.90673793 120.67182159 83.18476105 C119.60793487 79.72500583 118.54298281 76.2655787 117.47802734 72.80615234 C115.65112634 66.87104235 113.82508648 60.93566822 112 55 C107.18527963 69.65893816 102.64645012 84.38859785 98.2578125 99.1796875 C98.00917198 100.01703682 97.76053146 100.85438614 97.50435638 101.71710968 C95.17629962 109.55931704 92.85458083 117.40339337 90.53808594 125.24902344 C89.25581467 129.5908981 87.96865124 133.93129756 86.67843246 138.2708168 C86.19249658 139.90892212 85.70847725 141.54759728 85.22644424 143.18685532 C84.55935863 145.45522335 83.886107 147.72167452 83.21142578 149.98779297 C82.91846367 150.99271034 82.91846367 150.99271034 82.61958313 152.01792908 C81.70028417 155.08311937 80.79507621 157.30738569 79 160 C76.4113792 160.32934594 74.06616166 160.46802846 71.47265625 160.46875 C70.72793564 160.47636353 69.98321503 160.48397705 69.21592712 160.49182129 C67.63983515 160.5026329 66.06367147 160.50547106 64.48754883 160.50097656 C62.07446814 160.50000482 59.66457362 160.54159239 57.25195312 160.5859375 C55.72136081 160.59114492 54.19075742 160.59383269 52.66015625 160.59375 C51.93820572 160.61014526 51.21625519 160.62654053 50.47242737 160.64343262 C48.42993164 160.61523438 48.42993164 160.61523438 45 160 C42.40870061 156.4994493 41.19783925 152.89336856 40.00006104 148.73779297 C39.63268326 147.47602234 39.26530548 146.21425171 38.88679504 144.91424561 C38.48980786 143.52360291 38.09297777 142.13291536 37.69628906 140.7421875 C37.27117098 139.27157908 36.8454505 137.80114469 36.41917419 136.33087158 C35.26582232 132.345331 34.12174182 128.35718587 32.97993565 124.36832428 C32.02565929 121.03739199 31.06711253 117.70769478 30.10864711 114.37796593 C27.84808307 106.52408301 25.59528451 98.668001 23.34716797 90.81054688 C21.02768728 82.70422277 18.69462538 74.60189527 16.35495019 66.50137901 C14.34597373 59.54391256 12.34569106 52.58398693 10.35231757 45.62203407 C9.1619319 41.46494845 7.96820119 37.30889773 6.76599884 33.1552124 C5.63640396 29.25105492 4.51768389 25.34394381 3.40727425 21.43428802 C2.99796765 20.00008039 2.58482019 18.56696251 2.16756248 17.13504791 C1.59864724 15.18043019 1.04493234 13.2214073 0.49200439 11.26220703 C0.17788227 10.16715851 -0.13623985 9.07210999 -0.45988083 7.94387817 C-1 5 -1 5 0 0 Z " fill="#0B80D7" transform="translate(309,0)"/>
<path d="M0 0 C1.3488873 0.00025096 2.69778106 0.00580724 4.04663086 0.01586914 C5.99194702 0.01961548 5.99194702 0.01961548 7.9765625 0.0234375 C10.46884399 0.03709351 10.46884399 0.03709351 13.01147461 0.05102539 C18.27084961 0.07165039 23.53022461 0.09227539 28.94897461 0.11352539 C28.94897461 17.27352539 28.94897461 34.43352539 28.94897461 52.11352539 C32.24897461 50.13352539 35.54897461 48.15352539 38.94897461 46.11352539 C52.48546321 40.94828632 66.26690888 40.33783862 79.75366211 46.36743164 C89.70891879 51.91998362 95.78674833 59.93956748 99.04272461 70.74243164 C101.32357733 78.92796876 103.07282746 86.6616827 103.07836914 95.1887207 C103.08099762 96.20934097 103.08099762 96.20934097 103.0836792 97.25057983 C103.0880512 99.48096325 103.08517754 101.71126629 103.08178711 103.94165039 C103.08246117 105.49770116 103.08343206 107.05375183 103.08468628 108.60980225 C103.08615667 111.86105356 103.08402871 115.1122773 103.0793457 118.36352539 C103.07362976 122.53555095 103.07694332 126.70751243 103.08291817 130.87953568 C103.08652536 134.08791592 103.08538479 137.29628087 103.08279037 140.50466156 C103.08212253 142.04368853 103.08294458 143.58271689 103.08526993 145.12174225 C103.08780109 147.26650193 103.08395017 149.41115639 103.07836914 151.5559082 C103.07757355 152.77691223 103.07677795 153.99791626 103.07595825 155.25592041 C102.94897461 158.11352539 102.94897461 158.11352539 101.94897461 160.11352539 C97.55241288 160.13818043 93.15588741 160.15636381 88.75927734 160.16845703 C87.26252543 160.1734966 85.76577845 160.18032826 84.26904297 160.18896484 C82.12197654 160.20104698 79.97497499 160.2067573 77.82788086 160.21118164 C76.53438721 160.21641846 75.24089355 160.22165527 73.90820312 160.22705078 C70.94897461 160.11352539 70.94897461 160.11352539 69.94897461 159.11352539 C69.83575749 157.15793739 69.79212645 155.19829302 69.77539062 153.23950195 C69.76190079 151.9801886 69.74841095 150.72087524 69.73451233 149.42340088 C69.72945238 148.74492348 69.72439243 148.06644608 69.71917915 147.36740875 C69.70275752 145.23815799 69.67950881 143.10908297 69.65428162 140.97991943 C69.5836133 134.92347042 69.52397449 128.86694149 69.47216797 122.81030273 C69.44000601 119.10669416 69.39862074 115.40327446 69.35197258 111.69982147 C69.33614413 110.29831165 69.32373646 108.89675823 69.31506538 107.49518585 C69.68730426 90.55378363 69.68730426 90.55378363 63.94897461 75.11352539 C58.50201515 71.17539268 53.4432204 71.37784911 46.94897461 72.11352539 C40.42539159 73.86563637 35.50673112 78.46919277 31.94897461 84.11352539 C30.34787123 88.90235572 29.68965694 93.09618378 29.64599609 98.13452148 C29.6333371 99.12850952 29.6333371 99.12850952 29.62042236 100.14257812 C29.59487235 102.30738122 29.58256263 104.47204878 29.57006836 106.63696289 C29.55387773 108.14915016 29.53669611 109.66132712 29.51856995 111.17349243 C29.4730824 115.13498177 29.4381626 119.09648509 29.40637207 123.05810547 C29.35428991 129.41979734 29.28949133 135.78133903 29.21815681 142.14284134 C29.19528491 144.3659147 29.17904715 146.58896856 29.16343689 148.81210327 C29.15003859 150.16436995 29.13642452 151.51663452 29.12255859 152.86889648 C29.10829079 154.64591446 29.10829079 154.64591446 29.09373474 156.45883179 C28.94897461 159.11352539 28.94897461 159.11352539 27.94897461 160.11352539 C23.69149035 160.33162295 19.42851737 160.299317 15.16601562 160.29882812 C13.02380461 160.30101282 10.8821099 160.31916051 8.73999023 160.33813477 C7.38387221 160.34106898 6.02775173 160.34305359 4.67163086 160.34399414 C3.4316333 160.34810303 2.19163574 160.35221191 0.9140625 160.35644531 C-2.05102539 160.11352539 -2.05102539 160.11352539 -4.05102539 158.11352539 C-4.29991436 155.41829586 -4.29991436 155.41829586 -4.29826355 151.91941833 C-4.30188517 150.95623683 -4.30188517 150.95623683 -4.30557996 149.97359711 C-4.3112358 147.81237413 -4.30253991 145.65144427 -4.29394531 143.49023438 C-4.29501772 141.94478271 -4.29695578 140.39933144 -4.29969788 138.85388184 C-4.30455559 134.64948224 -4.29687934 130.44518838 -4.28674483 126.24080157 C-4.27798075 121.84901719 -4.27972145 117.45723629 -4.28010559 113.06544495 C-4.27916829 105.69025903 -4.27047493 98.31511419 -4.25683594 90.93994141 C-4.2411039 82.40117339 -4.23583799 73.86245036 -4.23657149 65.3236689 C-4.23718088 57.1234731 -4.23208397 48.92329204 -4.22377968 40.72310066 C-4.22024021 37.22669421 -4.21841549 33.73029297 -4.21788597 30.23388481 C-4.21688474 26.12093064 -4.21080625 22.00801456 -4.20071983 17.89507294 C-4.19778793 16.38130234 -4.19657085 14.86752737 -4.19714737 13.35375404 C-4.19763467 11.2960482 -4.19138916 9.23834396 -4.18473816 7.1806488 C-4.18306231 6.02639625 -4.18138647 4.87214369 -4.17965984 3.68291378 C-3.99273757 -0.05073542 -3.79766356 0.141307 0 0 Z " fill="#0B80D7" transform="translate(547.051025390625,-0.113525390625)"/>
<path d="M0 0 C11.55920959 9.45946326 17.07513979 25.39263161 18.59765625 39.83984375 C19.61973767 51.74607696 19.61973767 51.74607696 17.12890625 57.7421875 C16.12890625 58.7421875 16.12890625 58.7421875 13.23728943 58.86244202 C11.94267288 58.86022141 10.64805634 58.85800079 9.31420898 58.85571289 C8.24597397 58.85593193 8.24597397 58.85593193 7.15615845 58.8561554 C4.79157513 58.8554562 2.42706964 58.84766356 0.0625 58.83984375 C-1.57274838 58.83797959 -3.20799732 58.83655568 -4.84324646 58.83555603 C-9.1554416 58.83173068 -13.46760327 58.82190025 -17.77978516 58.81085205 C-22.17675321 58.8006383 -26.57372664 58.79605849 -30.97070312 58.79101562 C-39.60418206 58.78027799 -48.23763375 58.76320137 -56.87109375 58.7421875 C-56.25688827 60.50586159 -55.63575382 62.26712362 -55.01171875 64.02734375 C-54.66657227 65.00840088 -54.32142578 65.98945801 -53.96582031 67.00024414 C-51.52223957 73.12064007 -47.72687304 76.21581187 -41.8359375 78.98046875 C-31.79032333 82.87489174 -18.43526321 81.8409588 -8.5546875 78.03125 C-4.88692333 76.26944188 -1.48259912 74.20927408 1.875 71.9140625 C4.48841213 70.55526937 6.22386431 70.51675215 9.12890625 70.7421875 C10.81264253 74.73523796 12.47718803 78.73578765 14.12890625 82.7421875 C14.62390625 83.93134766 14.62390625 83.93134766 15.12890625 85.14453125 C16.59468712 88.81603045 17.71530667 91.79787312 17.12890625 95.7421875 C4.49362567 107.4820545 -13.14880799 110.10081864 -29.55859375 110.1171875 C-30.83154297 110.14167969 -32.10449219 110.16617188 -33.41601562 110.19140625 C-49.46712342 110.24036743 -63.8765371 105.64108052 -75.68359375 94.4921875 C-89.91245915 79.25802183 -92.58297518 62.27670388 -92.00292969 42.22216797 C-91.20321256 27.17860025 -82.98352477 13.38241967 -72.30859375 3.1171875 C-51.89367996 -13.79690292 -21.62104206 -15.11592854 0 0 Z M-51.2421875 24.96484375 C-53.67431145 27.6186001 -55.87109375 30.03254393 -55.87109375 33.7421875 C-41.35109375 33.7421875 -26.83109375 33.7421875 -11.87109375 33.7421875 C-14.80141323 25.92800221 -16.3049448 23.10752778 -22.87109375 18.7421875 C-33.38195329 14.64473378 -43.21943748 17.2986604 -51.2421875 24.96484375 Z " fill="#0B80D7" transform="translate(759.87109375,52.2578125)"/>
<path d="M0 0 C11.27731397 10.03662426 17.76891926 24.12111736 19.31591797 39.04833984 C19.47100479 42.12282469 19.51904327 45.17173963 19.5 48.25 C19.49427979 49.33684082 19.48855957 50.42368164 19.48266602 51.54345703 C19.17712137 65.41744724 15.44987674 76.81258219 7 88 C6.18208984 89.10794922 6.18208984 89.10794922 5.34765625 90.23828125 C-2.27562646 99.76290035 -15.07935742 105.97230121 -27 108 C-47.23761408 109.36486234 -65.85564568 107.91544475 -82.25 94.8125 C-93.46493024 84.35440555 -99.52126699 68.52978131 -100.25390625 53.45703125 C-100.81143561 35.91434461 -97.42892779 19.46126438 -85.8125 5.6875 C-64.43075343 -16.62544491 -24.49427002 -18.34092828 0 0 Z M-61 26 C-67.03865266 36.34948273 -67.25462642 48.49405815 -65.5390625 60.125 C-63.6719729 67.1540432 -59.8364832 73.25667584 -53.8125 77.4375 C-47.04187456 81.19895858 -37.91140027 81.24662453 -30.4453125 79.3515625 C-24.1156453 76.46996303 -19.73464184 71.34209221 -17.1875 64.9375 C-13.37965142 53.17796761 -13.79129744 39.85129198 -19.13671875 28.609375 C-22.98409192 22.05549011 -27.49059965 18.71693212 -34.7421875 16.5390625 C-44.97104487 14.09687856 -54.35889357 18.17190849 -61 26 Z " fill="#0B80D7" transform="translate(1005,54)"/>
<path d="M0 0 C3.12121357 3.62735631 3.56763295 7.16056471 4.578125 11.76953125 C5.80793031 16.6560449 7.65188356 19.66687735 11.94766235 22.30708313 C15.82270119 23.89680886 19.21560517 24.16675971 23.33740234 24.21166992 C24.11856415 24.23161514 24.89972595 24.25156036 25.70455933 24.27210999 C28.26908221 24.33424836 30.83350834 24.37623646 33.3984375 24.41796875 C35.18350971 24.45727626 36.9685545 24.49784727 38.75357056 24.53962708 C43.43866578 24.64590278 48.12393496 24.73506168 52.80944824 24.82061768 C57.59584601 24.91105922 62.38187897 25.01774346 67.16796875 25.12304688 C76.54919372 25.32706457 85.93068288 25.51299478 95.3125 25.6875 C95.38686755 30.2956187 95.44120394 34.90338514 95.47729492 39.51196289 C95.49234622 41.07843107 95.51279207 42.64485736 95.53881836 44.21118164 C95.57536433 46.46771606 95.59226261 48.72369153 95.60546875 50.98046875 C95.62095261 51.67649704 95.63643646 52.37252533 95.65238953 53.08964539 C95.65389641 57.48079298 94.99540741 60.19406835 92.3125 63.6875 C87.99589587 66.7866004 84.24757518 67.81428492 78.99713135 67.80775452 C77.71413902 67.80981651 77.71413902 67.80981651 76.40522766 67.81192017 C75.47518417 67.80832489 74.54514069 67.80472961 73.58691406 67.80102539 C72.60121933 67.80117142 71.6155246 67.80131744 70.59996033 67.8014679 C67.34265948 67.80077136 64.08541585 67.79299103 60.828125 67.78515625 C58.56939729 67.78329115 56.31066918 67.78186768 54.05194092 67.78086853 C48.10730879 67.77705059 42.16270109 67.76722645 36.21807861 67.75616455 C30.15189952 67.74593491 24.08571648 67.74136758 18.01953125 67.73632812 C6.11717676 67.72560356 -5.78515959 67.70853578 -17.6875 67.6875 C-17.78027517 59.5597326 -17.85130244 51.43218728 -17.89474869 43.30402088 C-17.91560327 39.52955707 -17.9438809 35.75545615 -17.98925781 31.98120117 C-18.0327932 28.3372155 -18.05665313 24.69357836 -18.06700897 21.04935265 C-18.07438669 19.66067711 -18.08879401 18.27202015 -18.11042023 16.88349342 C-18.13955017 14.93529569 -18.14113471 12.98674553 -18.14160156 11.03833008 C-18.15048401 9.9302449 -18.15936646 8.82215973 -18.16851807 7.68049622 C-17.57461915 3.98513147 -16.26596328 2.34982736 -13.6875 -0.3125 C-8.78870317 -3.14864553 -4.95419665 -2.41949139 0 0 Z " fill="#8ECEF6" transform="translate(185.6875,94.3125)"/>
<path d="M0 0 C0.68429077 -0.00095673 1.36858154 -0.00191345 2.0736084 -0.00289917 C3.52286877 -0.0035808 4.97213218 -0.00172773 6.42138672 0.00244141 C8.64687928 0.00778998 10.87217001 0.0024959 13.09765625 -0.00390625 C14.50260461 -0.00324547 15.90755285 -0.0019643 17.3125 0 C18.59962891 0.00112793 19.88675781 0.00225586 21.21289062 0.00341797 C24.15625 0.1328125 24.15625 0.1328125 25.15625 1.1328125 C25.25739653 3.15314773 25.2870258 5.17707249 25.28996277 7.19993591 C25.29422775 8.51944244 25.29849274 9.83894897 25.30288696 11.19844055 C25.3025374 12.67453006 25.30207584 14.15061954 25.30151367 15.62670898 C25.30450351 17.17039064 25.30790562 18.71407155 25.31169128 20.25775146 C25.32055334 24.46224188 25.32287032 28.66671196 25.32350707 32.87121081 C25.32445433 36.37538751 25.32813051 39.87955942 25.33167917 43.38373429 C25.33983209 51.64783377 25.34226264 59.91192235 25.34155273 68.17602539 C25.3409517 76.71420046 25.35150668 85.2523124 25.3672964 93.79047149 C25.38035133 101.10936133 25.3857375 108.42823048 25.38509732 115.74713188 C25.38484173 120.12349638 25.38772635 124.49980481 25.39827538 128.87615776 C25.40792204 132.9907619 25.40805929 137.10525598 25.40075874 141.21986389 C25.39970861 142.73321759 25.40210101 144.24657802 25.4081192 145.75992012 C25.41578202 147.81964671 25.41123283 149.87898777 25.40348816 151.93870544 C25.40403293 153.09333503 25.40457769 154.24796461 25.40513897 155.43758297 C25.15625 158.1328125 25.15625 158.1328125 23.15625 160.1328125 C20.19116211 160.37573242 20.19116211 160.37573242 16.43359375 160.36328125 C15.77291397 160.36282303 15.11223419 160.36236481 14.43153381 160.3618927 C13.03531091 160.35887171 11.63909133 160.35098992 10.24291992 160.33862305 C8.09867502 160.32035446 5.95486151 160.31811344 3.81054688 160.31835938 C-6.69631788 160.28024462 -6.69631788 160.28024462 -7.84375 159.1328125 C-7.94272419 157.09750576 -7.97007301 155.05870779 -7.97073364 153.02099609 C-7.97229363 152.37564596 -7.97385362 151.73029583 -7.97546089 151.06538963 C-7.9794725 148.88732035 -7.97628064 146.70931989 -7.97314453 144.53125 C-7.9744985 142.97609415 -7.97627841 141.42093861 -7.97845459 139.86578369 C-7.98302943 135.6303657 -7.98123916 131.39497196 -7.9780755 127.15955353 C-7.97555216 122.73706494 -7.97788937 118.3145785 -7.97946167 113.89208984 C-7.98128344 106.46386338 -7.97887686 99.03564684 -7.97412109 91.60742188 C-7.96867846 83.00676109 -7.97044111 74.406124 -7.9759475 65.80546379 C-7.98047841 58.43478631 -7.98112929 51.06411599 -7.97850883 43.69343758 C-7.97694593 39.28526546 -7.97675263 34.87710451 -7.98004532 30.46893311 C-7.98292372 26.32562902 -7.98094892 22.18235563 -7.97515106 18.03905487 C-7.97382329 16.51399537 -7.97421786 14.98893331 -7.97641373 13.46387482 C-7.97912459 11.39075738 -7.97574493 9.31773988 -7.97073364 7.24462891 C-7.97035662 6.08170319 -7.96997959 4.91877747 -7.96959114 3.72061157 C-7.72120019 -1.3873035 -4.40976765 0.00386434 0 0 Z " fill="#0C80D7" transform="translate(860.84375,-0.1328125)"/>
<path d="M0 0 C1.29349365 0.00523682 2.5869873 0.01047363 3.91967773 0.01586914 C4.9496714 0.01799156 4.9496714 0.01799156 6.00047302 0.02015686 C8.20144949 0.0257706 10.40232557 0.03832532 12.60327148 0.05102539 C14.09220231 0.05603863 15.58113473 0.06060184 17.07006836 0.06469727 C20.72700223 0.07574446 24.38387707 0.09301826 28.04077148 0.11352539 C29.43010533 2.89219309 29.16993558 5.15251595 29.17448425 8.26293945 C29.17874924 9.57540649 29.18301422 10.88787354 29.18740845 12.2401123 C29.18705891 13.70312503 29.18659736 15.16613773 29.18603516 16.62915039 C29.18902583 18.16312746 29.19242815 19.69710378 29.19621277 21.2310791 C29.20506527 25.40451959 29.20739138 29.57793958 29.20802855 33.75138855 C29.20897651 37.23076216 29.21265342 40.71013095 29.21620065 44.18950272 C29.2243496 52.39464816 29.22678444 60.59978262 29.22607422 68.80493164 C29.22547298 77.2812117 29.23603296 85.7574282 29.25181788 94.23369217 C29.26487247 101.5016472 29.27025901 108.7695814 29.26961881 116.03754807 C29.26936325 120.38259869 29.27224628 124.72759284 29.28279686 129.07263184 C29.29244317 133.15688079 29.29258104 137.24101886 29.28528023 141.32527161 C29.28423012 142.82733827 29.28662237 144.32941171 29.29264069 145.83146667 C29.30030313 147.87566778 29.29454268 149.9199063 29.28800964 151.96411133 C29.28855441 153.11006775 29.28909918 154.25602417 29.28966045 155.43670654 C29.04077148 158.11352539 29.04077148 158.11352539 27.04077148 160.11352539 C24.07568359 160.35644531 24.07568359 160.35644531 20.31811523 160.34399414 C19.65743546 160.34353592 18.99675568 160.3430777 18.3160553 160.34260559 C16.91983239 160.3395846 15.52361281 160.33170281 14.12744141 160.31933594 C11.9831965 160.30106735 9.83938299 160.29882633 7.69506836 160.29907227 C-2.8117964 160.26095751 -2.8117964 160.26095751 -3.95922852 159.11352539 C-4.05820271 157.07821865 -4.08555152 155.03942068 -4.08621216 153.00170898 C-4.08777215 152.35635885 -4.08933214 151.71100872 -4.0909394 151.04610252 C-4.09495101 148.86803324 -4.09175916 146.69003278 -4.08862305 144.51196289 C-4.08997702 142.95680704 -4.09175692 141.4016515 -4.09393311 139.84649658 C-4.09850795 135.61107859 -4.09671767 131.37568485 -4.09355402 127.14026642 C-4.09103068 122.71777784 -4.09336788 118.29529139 -4.09494019 113.87280273 C-4.09676196 106.44457627 -4.09435537 99.01635973 -4.08959961 91.58813477 C-4.08415697 82.98747398 -4.08591963 74.38683689 -4.09142601 65.78617668 C-4.09595693 58.41549921 -4.0966078 51.04482888 -4.09398735 43.67415047 C-4.09242445 39.26597836 -4.09223114 34.8578174 -4.09552383 30.449646 C-4.09840223 26.30634191 -4.09642744 22.16306852 -4.09062958 18.01976776 C-4.08930181 16.49470826 -4.08969638 14.9696462 -4.09189224 13.44458771 C-4.09460311 11.37147027 -4.09122344 9.29845277 -4.08621216 7.2253418 C-4.08583513 6.06241608 -4.08545811 4.89949036 -4.08506966 3.70132446 C-3.90523899 0.00328397 -3.74578268 0.1437001 0 0 Z " fill="#0B80D7" transform="translate(801.959228515625,-0.113525390625)"/>
</svg>
