<svg width="20" height="20" viewBox="0 0 20 20" fill="none" xmlns="http://www.w3.org/2000/svg">
<path d="M6.66667 1.66699V4.16699" stroke="#292D32" stroke-opacity="0.7" stroke-width="1.5" stroke-miterlimit="10" stroke-linecap="round" stroke-linejoin="round"/>
<path d="M13.3333 1.66699V4.16699" stroke="#292D32" stroke-opacity="0.7" stroke-width="1.5" stroke-miterlimit="10" stroke-linecap="round" stroke-linejoin="round"/>
<path opacity="0.4" d="M2.91667 7.5752H17.0833" stroke="#292D32" stroke-opacity="0.7" stroke-width="1.5" stroke-miterlimit="10" stroke-linecap="round" stroke-linejoin="round"/>
<path d="M16.0083 13.1416L13.0584 16.0916C12.9417 16.2082 12.8333 16.4249 12.8083 16.5832L12.65 17.7082C12.5917 18.1166 12.875 18.3999 13.2833 18.3416L14.4084 18.1833C14.5667 18.1583 14.7917 18.0499 14.9 17.9332L17.85 14.9833C18.3584 14.4749 18.6 13.8833 17.85 13.1333C17.1084 12.3916 16.5167 12.6332 16.0083 13.1416Z" stroke="#292D32" stroke-opacity="0.7" stroke-width="1.5" stroke-miterlimit="10" stroke-linecap="round" stroke-linejoin="round"/>
<path d="M15.5833 13.5664C15.8333 14.4664 16.5333 15.1664 17.4333 15.4164" stroke="#292D32" stroke-opacity="0.7" stroke-width="1.5" stroke-miterlimit="10" stroke-linecap="round" stroke-linejoin="round"/>
<path d="M10 18.3337H6.66667C3.75 18.3337 2.5 16.667 2.5 14.167V7.08366C2.5 4.58366 3.75 2.91699 6.66667 2.91699H13.3333C16.25 2.91699 17.5 4.58366 17.5 7.08366V10.0003" stroke="#292D32" stroke-opacity="0.7" stroke-width="1.5" stroke-miterlimit="10" stroke-linecap="round" stroke-linejoin="round"/>
<path opacity="0.4" d="M9.99624 11.4167H10.0037" stroke="#292D32" stroke-opacity="0.7" stroke-width="2" stroke-linecap="round" stroke-linejoin="round"/>
<path opacity="0.4" d="M6.91192 11.4167H6.91941" stroke="#292D32" stroke-opacity="0.7" stroke-width="2" stroke-linecap="round" stroke-linejoin="round"/>
<path opacity="0.4" d="M6.91203 13.917H6.91952" stroke="#292D32" stroke-opacity="0.7" stroke-width="2" stroke-linecap="round" stroke-linejoin="round"/>
</svg>
