<svg width="16" height="17" viewBox="0 0 16 17" fill="none" xmlns="http://www.w3.org/2000/svg">
<path d="M4.66672 11.167C4.01006 11.1677 3.37622 10.9262 2.88663 10.4886C2.39704 10.0509 2.08613 9.44808 2.01346 8.79545C1.94079 8.14283 2.11147 7.48634 2.49281 6.95175C2.87414 6.41717 3.43931 6.04208 4.08005 5.89834C3.89466 5.03374 4.06033 4.1309 4.54061 3.38844C5.02089 2.64599 5.77644 2.12473 6.64105 1.93934C7.50566 1.75396 8.40849 1.91963 9.15095 2.39991C9.89341 2.88019 10.4147 3.63574 10.6 4.50034H10.6667C11.4934 4.49951 12.2908 4.80586 12.9043 5.35993C13.5177 5.91399 13.9034 6.67623 13.9865 7.49868C14.0696 8.32113 13.8441 9.14511 13.3538 9.81066C12.8636 10.4762 12.1435 10.9358 11.3334 11.1003M6.00005 13.167L8.00005 15.167M8.00005 15.167L10 13.167M8.00005 15.167V7.16701" stroke="#37352F" stroke-opacity="0.5" stroke-linecap="round" stroke-linejoin="round"/>
</svg>
