<svg width="20" height="20" viewBox="0 0 20 20" fill="none" xmlns="http://www.w3.org/2000/svg">
<path opacity="0.34" d="M4.16667 8.33366H5.83334C7.5 8.33366 8.33334 7.50033 8.33334 5.83366V4.16699C8.33334 2.50033 7.5 1.66699 5.83334 1.66699H4.16667C2.50001 1.66699 1.66667 2.50033 1.66667 4.16699V5.83366C1.66667 7.50033 2.50001 8.33366 4.16667 8.33366Z" stroke="#292D32" stroke-opacity="0.7" stroke-width="1.5" stroke-miterlimit="10" stroke-linecap="round" stroke-linejoin="round"/>
<path d="M14.1667 8.33366H15.8333C17.5 8.33366 18.3333 7.50033 18.3333 5.83366V4.16699C18.3333 2.50033 17.5 1.66699 15.8333 1.66699H14.1667C12.5 1.66699 11.6667 2.50033 11.6667 4.16699V5.83366C11.6667 7.50033 12.5 8.33366 14.1667 8.33366Z" stroke="#292D32" stroke-opacity="0.7" stroke-width="1.5" stroke-miterlimit="10" stroke-linecap="round" stroke-linejoin="round"/>
<path opacity="0.34" d="M14.1667 18.3337H15.8333C17.5 18.3337 18.3333 17.5003 18.3333 15.8337V14.167C18.3333 12.5003 17.5 11.667 15.8333 11.667H14.1667C12.5 11.667 11.6667 12.5003 11.6667 14.167V15.8337C11.6667 17.5003 12.5 18.3337 14.1667 18.3337Z" stroke="#292D32" stroke-opacity="0.7" stroke-width="1.5" stroke-miterlimit="10" stroke-linecap="round" stroke-linejoin="round"/>
<path d="M4.16667 18.3337H5.83334C7.5 18.3337 8.33334 17.5003 8.33334 15.8337V14.167C8.33334 12.5003 7.5 11.667 5.83334 11.667H4.16667C2.50001 11.667 1.66667 12.5003 1.66667 14.167V15.8337C1.66667 17.5003 2.50001 18.3337 4.16667 18.3337Z" stroke="#292D32" stroke-opacity="0.7" stroke-width="1.5" stroke-miterlimit="10" stroke-linecap="round" stroke-linejoin="round"/>
</svg>
