<svg width="20" height="20" viewBox="0 0 20 20" fill="none" xmlns="http://www.w3.org/2000/svg">
<path d="M14 5.98665C11.78 5.76665 9.54667 5.65332 7.32 5.65332C6 5.65332 4.68 5.71999 3.36 5.85332L2 5.98665" stroke="#292D32" stroke-opacity="0.7" stroke-width="1.5" stroke-linecap="round" stroke-linejoin="round"/>
<path opacity="0.34" d="M5.66663 5.31301L5.81329 4.43967C5.91996 3.80634 5.99996 3.33301 7.12663 3.33301H8.87329C9.99996 3.33301 10.0866 3.83301 10.1866 4.44634L10.3333 5.31301" stroke="#292D32" stroke-opacity="0.7" stroke-width="1.5" stroke-linecap="round" stroke-linejoin="round"/>
<path d="M12.5667 8.09375L12.1334 14.8071C12.06 15.8537 12 16.6671 10.14 16.6671H5.86002C4.00002 16.6671 3.94002 15.8537 3.86668 14.8071L3.43335 8.09375" stroke="#292D32" stroke-opacity="0.7" stroke-width="1.5" stroke-linecap="round" stroke-linejoin="round"/>
<path opacity="0.34" d="M6.88672 13H9.10672" stroke="#292D32" stroke-opacity="0.7" stroke-width="1.5" stroke-linecap="round" stroke-linejoin="round"/>
<path opacity="0.34" d="M6.33337 10.333H9.66671" stroke="#292D32" stroke-opacity="0.7" stroke-width="1.5" stroke-linecap="round" stroke-linejoin="round"/>
</svg>
