<svg width="20" height="20" viewBox="0 0 20 20" fill="none" xmlns="http://www.w3.org/2000/svg">
<g clip-path="url(#clip0_153_1203)">
<path d="M16.25 10.4163C16.25 9.26634 17.1833 8.33301 18.3333 8.33301V7.49967C18.3333 4.16634 17.5 3.33301 14.1667 3.33301H5.83334C2.50001 3.33301 1.66667 4.16634 1.66667 7.49967V7.91634C2.81667 7.91634 3.75001 8.84967 3.75001 9.99967C3.75001 11.1497 2.81667 12.083 1.66667 12.083V12.4997C1.66667 15.833 2.50001 16.6663 5.83334 16.6663H14.1667C17.5 16.6663 18.3333 15.833 18.3333 12.4997C17.1833 12.4997 16.25 11.5663 16.25 10.4163Z" stroke="#292D32" stroke-opacity="0.7" stroke-width="1.5" stroke-linecap="round" stroke-linejoin="round"/>
<path opacity="0.4" d="M8.33333 3.33301L8.33333 16.6663" stroke="#292D32" stroke-opacity="0.7" stroke-width="1.5" stroke-linecap="round" stroke-linejoin="round" stroke-dasharray="5 5"/>
</g>
<defs>
<clipPath id="clip0_153_1203">
<rect width="20" height="20" fill="white"/>
</clipPath>
</defs>
</svg>
