<svg width="20" height="20" viewBox="0 0 20 20" fill="none" xmlns="http://www.w3.org/2000/svg">
<path opacity="0.4" d="M14.998 5.967C14.948 5.95866 14.8897 5.95866 14.8397 5.967C13.6897 5.92533 12.773 4.98366 12.773 3.81699C12.773 2.62533 13.7314 1.66699 14.923 1.66699C16.1147 1.66699 17.073 2.63366 17.073 3.81699C17.0647 4.98366 16.148 5.92533 14.998 5.967Z" stroke="#292D32" stroke-width="1.5" stroke-linecap="round" stroke-linejoin="round"/>
<path opacity="0.4" d="M14.1396 12.0338C15.2812 12.2255 16.5396 12.0255 17.4229 11.4338C18.5979 10.6505 18.5979 9.36713 17.4229 8.58379C16.5312 7.99213 15.2562 7.79212 14.1146 7.99212" stroke="#292D32" stroke-width="1.5" stroke-linecap="round" stroke-linejoin="round"/>
<path opacity="0.4" d="M4.97292 5.967C5.02292 5.95866 5.08125 5.95866 5.13125 5.967C6.28125 5.92533 7.19792 4.98366 7.19792 3.81699C7.19792 2.62533 6.23959 1.66699 5.04792 1.66699C3.85625 1.66699 2.89792 2.63366 2.89792 3.81699C2.90625 4.98366 3.82292 5.92533 4.97292 5.967Z" stroke="#292D32" stroke-width="1.5" stroke-linecap="round" stroke-linejoin="round"/>
<path opacity="0.4" d="M5.83125 12.0338C4.68959 12.2255 3.43126 12.0255 2.54792 11.4338C1.37292 10.6505 1.37292 9.36713 2.54792 8.58379C3.43959 7.99213 4.71459 7.79212 5.85625 7.99212" stroke="#292D32" stroke-width="1.5" stroke-linecap="round" stroke-linejoin="round"/>
<path d="M10 12.1916C9.95001 12.1833 9.89168 12.1833 9.84168 12.1916C8.69168 12.1499 7.77501 11.2083 7.77501 10.0416C7.77501 8.84994 8.73334 7.8916 9.92501 7.8916C11.1167 7.8916 12.075 8.85827 12.075 10.0416C12.0667 11.2083 11.15 12.1583 10 12.1916Z" stroke="#292D32" stroke-width="1.5" stroke-linecap="round" stroke-linejoin="round"/>
<path d="M7.57501 14.8168C6.40001 15.6001 6.40001 16.8835 7.57501 17.6668C8.90834 18.5585 11.0917 18.5585 12.425 17.6668C13.6 16.8835 13.6 15.6001 12.425 14.8168C11.1 13.9335 8.90834 13.9335 7.57501 14.8168Z" stroke="#292D32" stroke-width="1.5" stroke-linecap="round" stroke-linejoin="round"/>
</svg>
