<?xml version="1.0" encoding="UTF-8"?>
<svg xmlns="http://www.w3.org/2000/svg" width="222" height="35" viewBox="0 0 222 35" fill="none">
  <path d="M60.2557 25.9184C58.6648 25.9184 54.2235 25.8521 50.3125 25.8521C47.4622 25.8521 44.9432 25.7858 44.3466 25.7858C42.358 25.7858 40.7671 24.1949 40.7671 22.2063C40.7671 21.0131 39.7728 20.0188 38.5796 20.0188C37.3864 20.0188 36.4584 20.9468 36.3921 22.14C36.3921 22.2063 36.3921 29.034 36.3921 34.7347H57.8694C59.394 34.7347 60.7197 33.4752 60.7197 31.8843V25.9184C60.5209 25.9184 60.322 25.9184 60.2557 25.9184Z" fill="#8FCFF7"></path>
  <path d="M60.5871 5.83321C60.5871 2.65139 52.1023 0.0661621 41.5625 0.0661621C31.0227 0.0661621 22.6042 2.65139 22.6042 5.83321V7.22525C22.6042 7.29154 22.6042 7.29154 22.6042 7.35783V24.8578C22.4716 26.2499 21.2121 27.3768 19.8201 27.3768H19.6212H18.0966H17.8977C16.3731 27.3768 15.1136 26.1173 15.0473 24.5927V12.926C15.0473 12.3957 15.3125 12.0643 15.8428 12.0643H15.9091H18.0966C18.6269 12.0643 19.0909 11.6003 19.0909 11.07V8.81616C19.0909 8.28586 18.6269 7.82184 18.0966 7.82184H15.9091H12.7936C11.0701 7.82184 10.2083 8.68359 10.2083 10.4734V18.0965H8.81629V10.4734C8.81629 8.68359 7.95455 7.82184 6.23106 7.82184H3.18182H0.994318H0.92803C0.397727 7.82184 0 8.28586 0 8.81616V11.0037C0 11.6003 0.397727 11.998 0.92803 12.0643H3.11553C3.64583 12.0643 3.97727 12.3294 3.97727 12.926V30.0946V31.8843C3.97727 33.4753 5.23674 34.7347 6.82765 34.7347H25.1231C25.2557 34.7347 25.322 34.7347 25.4545 34.7347H35V34.6684C35 22.14 35 22.0737 35 22.0737C35.0663 20.1514 36.6572 18.6268 38.5795 18.6268C40.5682 18.6268 42.1591 20.2177 42.1591 22.2063C42.1591 23.3995 43.1534 24.3938 44.3466 24.3938C45.0095 24.3938 47.4621 24.3938 50.3125 24.4601C54.2235 24.5264 59.2614 24.5264 60.6534 24.5264V7.95442V7.35783L60.5871 5.83321ZM38.0492 15.909C36.9223 15.909 35.928 14.9809 35.928 13.7878C35.928 12.5946 36.8561 11.6665 38.0492 11.6665C39.2424 11.6665 40.1705 12.5946 40.1705 13.7878C40.1705 14.9809 39.1761 15.909 38.0492 15.909Z" fill="#0C80D7"></path>
  <path d="M114.545 0.0662842H108.579C108.248 0.0662842 107.983 0.265148 107.917 0.596587C107.519 2.25378 106.79 4.97159 105.862 8.75C104.934 12.5284 104.072 15.7765 103.409 18.6269C102.945 20.6155 102.415 22.5379 102.017 24.3939L100.426 19.0246L94.5265 0.530299C94.4602 0.265148 94.195 0.0662842 93.8636 0.0662842H88.3617C88.0965 0.0662842 87.8314 0.265148 87.6988 0.530299C87.2348 2.12121 86.373 4.83901 85.1799 8.55113C83.9867 12.3295 82.9261 15.6439 82.0643 18.428C81.4677 20.3504 80.9374 22.339 80.4071 24.1951C79.9431 22.339 79.4791 20.4167 78.9488 18.4943C78.2196 15.7102 77.3579 12.3958 76.3636 8.61742C75.3693 4.83901 74.6401 2.12121 74.1761 0.530299C74.1098 0.265148 73.8446 0.0662842 73.5132 0.0662842H67.3484C67.1496 0.0662842 66.9507 0.132572 66.8181 0.331436C66.6855 0.530299 66.6855 0.729163 66.6855 0.928027L76.2973 34.0057C76.3636 34.2708 76.6287 34.4697 76.9602 34.4697H83.4564C83.7215 34.4697 83.9867 34.2708 84.1193 34.0057L91.0132 11.0038L98.106 34.0057C98.1723 34.2708 98.4374 34.4697 98.7689 34.4697H105.398C105.663 34.4697 105.928 34.2708 106.061 34.0057L115.275 0.928027C115.341 0.729163 115.275 0.530299 115.142 0.331436C114.943 0.132572 114.744 0.0662842 114.545 0.0662842Z" fill="#0C80D7"></path>
  <path d="M139.801 16.6383C139.602 15.8428 139.403 15.1136 139.138 14.4508C138.873 13.7879 138.475 13.125 138.011 12.4621C137.547 11.7992 136.951 11.2027 136.288 10.7386C135.625 10.2746 134.83 9.87689 133.835 9.61174C132.907 9.34659 131.847 9.21401 130.72 9.21401C129.328 9.21401 127.936 9.54545 126.411 10.2746C125.616 10.6723 124.953 11.0701 124.422 11.6004V0.662879C124.422 0.265151 124.157 0 123.76 0H118.125C117.727 0 117.462 0.265151 117.462 0.662879V33.7405C117.462 34.1383 117.727 34.4034 118.125 34.4034H123.76C124.157 34.4034 124.422 34.1383 124.422 33.7405V19.7538C124.422 18.5606 124.953 17.5 126.08 16.572C127.206 15.5777 128.466 15.1136 129.858 15.1136C130.985 15.1136 131.847 15.5114 132.377 16.3068C132.974 17.1686 133.305 18.6269 133.305 20.6818V33.8068C133.305 34.2045 133.57 34.4697 133.968 34.4697H139.602C140 34.4697 140.265 34.2045 140.265 33.8068V20.8144C140.265 20.0852 140.265 19.4223 140.199 18.8258C140.133 18.1629 140 17.4337 139.801 16.6383Z" fill="#0C80D7"></path>
  <path d="M165.587 13.125C164.725 11.8655 163.532 10.9375 162.074 10.2083C160.616 9.54543 158.892 9.21399 156.97 9.21399C155.047 9.21399 153.258 9.54543 151.667 10.2746C150.076 11.0038 148.684 11.9318 147.689 13.125C146.629 14.3182 145.833 15.7102 145.237 17.2348C144.64 18.7594 144.375 20.4166 144.375 22.1401C144.375 25.9185 145.568 29.0341 147.955 31.4204C150.341 33.8068 153.589 35 157.699 35C159.555 35 161.345 34.7348 162.869 34.2708C164.394 33.8068 165.985 33.0113 167.509 31.9507C167.775 31.7519 167.841 31.4867 167.775 31.1553L166.25 27.0454C166.184 26.8466 166.051 26.714 165.852 26.6477C165.653 26.5814 165.455 26.6477 165.256 26.714C163.002 28.3049 160.616 29.1004 158.295 29.1004C156.307 29.1004 154.716 28.57 153.523 27.642C152.528 26.7803 151.932 25.5208 151.733 23.7973H167.377C167.642 23.7973 167.907 23.5985 167.973 23.3333C168.106 23.0019 168.106 22.6704 168.106 22.1401C168.106 20.3504 167.907 18.6932 167.509 17.2348C167.045 15.7102 166.449 14.3182 165.587 13.125ZM151.866 18.6932C152.263 17.6326 152.794 16.7708 153.589 16.1079C154.583 15.3125 155.777 14.9147 157.235 14.9147C158.428 14.9147 159.422 15.3125 160.284 16.0416C160.947 16.7045 161.477 17.5663 161.742 18.6932H151.866Z" fill="#0C80D7"></path>
  <path d="M178.712 0H173.144C172.746 0 172.481 0.265152 172.481 0.662879V33.7405C172.481 34.1383 172.746 34.4034 173.144 34.4034H178.712C179.11 34.4034 179.375 34.1383 179.375 33.7405V0.662879C179.375 0.331439 179.11 0 178.712 0Z" fill="#0C80D7"></path>
  <path d="M190.71 0H185.142C184.744 0 184.479 0.265152 184.479 0.662879V33.7405C184.479 34.1383 184.744 34.4034 185.142 34.4034H190.71C191.108 34.4034 191.373 34.1383 191.373 33.7405V0.662879C191.373 0.331439 191.041 0 190.71 0Z" fill="#0C80D7"></path>
  <path d="M220.54 17.1685C220.009 15.6439 219.28 14.2519 218.286 13.0587C217.291 11.8655 215.899 10.8712 214.242 10.2083C212.585 9.54543 210.663 9.21399 208.608 9.21399C206.553 9.21399 204.631 9.54543 202.973 10.2083C201.316 10.8712 199.924 11.8655 198.863 13.0587C197.803 14.2519 197.007 15.6439 196.477 17.1685C195.947 18.6932 195.682 20.3504 195.682 22.0738C195.682 23.7973 195.947 25.4545 196.477 26.9129C197.007 28.4375 197.803 29.8295 198.797 31.0227C199.858 32.2159 201.184 33.2102 202.907 33.8731C204.564 34.536 206.487 34.9337 208.608 34.9337C210.663 34.9337 212.519 34.6022 214.176 33.8731C215.833 33.1439 217.225 32.2159 218.22 30.9564C219.214 29.7632 220.009 28.3712 220.54 26.9129C221.07 25.3882 221.335 23.7973 221.335 22.1401C221.269 20.4166 221.004 18.6932 220.54 17.1685ZM213.778 24.7916C213.579 25.5871 213.248 26.3826 212.784 27.0454C212.386 27.7083 211.79 28.1723 211.06 28.5701C210.331 28.9678 209.47 29.1004 208.475 29.1004C207.149 29.1004 206.089 28.7689 205.227 28.106C204.365 27.4432 203.769 26.6477 203.371 25.5871C202.973 24.5265 202.774 23.3333 202.774 22.0076C202.774 20.6818 202.973 19.4886 203.371 18.428C203.769 17.4337 204.365 16.6382 205.227 15.9754C206.089 15.3788 207.149 15.0473 208.409 15.0473C210.265 15.0473 211.657 15.6439 212.585 16.9034C213.579 18.2291 214.043 19.8863 214.043 22.0076C214.11 23.0682 213.977 23.9962 213.778 24.7916Z" fill="#0C80D7"></path>
</svg>
